<svg width="32" height="32" viewBox="0 0 32 32" fill="none" xmlns="http://www.w3.org/2000/svg">
<g id="TasteNFT_logo 1">
<g clip-path="url(#clip0_103_193)">
<g id="g1041">
<path id="path867" d="M16.0001 31.9378C24.8023 31.9378 31.9378 24.8023 31.9378 16.0001C31.9378 7.19803 24.8023 0.0625 16.0001 0.0625C7.19803 0.0625 0.0625 7.19803 0.0625 16.0001C0.0625 24.8023 7.19803 31.9378 16.0001 31.9378Z" fill="white" stroke="white" stroke-width="5"/>
<g id="g1507">
<g id="g1257">
<path id="path6" d="M26.2659 10.2385C26.2659 10.2385 23.8683 11.3217 23.5913 13.5334C23.3144 15.745 21.2443 17.957 19.2161 18.6005C17.2251 19.2327 15.8732 21.0486 13.6016 19.9296C10.7335 18.5167 6.03293 16.2285 4.01953 16.7705C4.47136 16.2386 5.36916 15.4165 5.61 14.7615C5.96711 13.7674 6.14994 13.1359 6.26332 12.3621C6.49766 10.7654 8.49136 7.62027 11.1717 6.00875C12.1202 5.44005 13.6027 3.62645 15.2239 3.98346C16.9481 4.36313 18.268 3.22055 19.6556 3.99146C21.0433 4.76238 22.7499 6.90006 23.385 8.02806C24.3509 9.74362 26.2659 10.2385 26.2659 10.2385Z" fill="#95001A"/>
<path id="path8" d="M23.3114 11.3423C23.3114 11.3423 22.4748 18.0581 17.8645 17.6548C13.2541 17.2514 14.7794 15.3987 6.17041 15.1088C6.17041 15.1088 8.47159 12.9502 13.0671 12.4595C17.6626 11.9688 23.3114 11.3423 23.3114 11.3423Z" fill="#780016"/>
<path id="path12" d="M19.9963 5.97823C21.3287 7.51872 22.3948 10.3161 26.0854 10.2562C26.0854 10.2562 22.8642 11.1795 20.5608 9.47371C19.253 8.50456 16.8 8.06145 16.8 8.06145L6.17024 15.1091L3.82861 16.7849C5.91134 15.0275 7.79656 13.3452 8.93144 11.2549C10.0533 9.18917 11.4521 8.96965 13.4819 7.71538C15.1761 6.66847 15.4135 5.95448 15.6897 6.00541C18.8234 6.5832 19.0083 4.83589 19.9963 5.97823V5.97823Z" fill="#69001F"/>
<path id="path14" d="M25.0637 10.3946C23.94 10.8449 23.6555 11.3089 23.1691 11.7259C21.6742 13.0067 20.6607 13.7372 19.4955 14.0044C17.3427 14.4976 14.5051 14.0892 10.1494 14.2982C7.9894 14.4022 6.73115 14.8644 5.87793 15.3259C5.87793 15.3259 8.72261 12.0806 11.2982 10.7406C13.6846 9.49921 14.4818 8.26145 16.0817 7.8544C17.2007 7.56971 17.4609 7.75623 18.7412 7.53189C19.3033 7.43339 20.0588 8.27585 20.3996 8.54445C21.5309 9.43596 23.1489 10.3881 25.0637 10.3946V10.3946Z" fill="#36000A"/>
<path id="path16" d="M11.6031 18.2877C13.2522 19.7082 15.8639 21.0511 18.6377 19.8321C21.4116 18.6131 22.9707 16.665 23.5936 14.5C23.6297 15.3106 23.5304 16.9842 22.0936 18.6983C21.6134 19.2717 20.905 20.096 19.535 20.7124C17.579 21.5927 15.71 21.4013 15.2937 21.3508C14.7452 21.2836 14.1971 21.1504 12.5452 20.3531C9.24522 18.7608 8.49092 17.8736 6.17276 17.2291C5.40476 17.0175 4.62078 16.8689 3.82861 16.7849L4.81256 16.0808C4.81256 16.0808 9.95439 16.8669 11.6031 18.2877V18.2877Z" fill="#69001F"/>
<path id="path18" d="M26.0855 10.2554C26.0855 10.2554 23.9002 11.5137 21.9287 13.8243C21.9287 13.8243 23.0896 10.7739 24.5784 10.3774C24.5769 10.3774 25.7739 10.3319 26.0855 10.2554V10.2554Z" fill="#810716"/>
<path id="path22" d="M19.6974 3.38708C20.6529 3.89005 21.1495 4.07891 21.8043 5.0207C22.2844 5.71119 22.9201 7.05107 23.4473 7.92109C24.3615 9.42971 25.0919 9.53446 26.0746 10.2516C26.0746 10.2516 23.6243 10.0436 21.9205 6.6368C21.4758 5.74758 20.6426 4.57285 19.4932 4.30535C18.957 4.18055 18.352 4.2532 17.6856 4.64437C16.381 5.41008 15.6862 4.53258 14.7431 4.80727C13.7735 5.08963 13.6861 5.86764 12.1014 6.29011C6.93566 8.19014 8.09871 14.191 3.82861 16.7847C3.82861 16.7851 5.12591 15.6815 5.72485 13.7639C6.69781 10.6487 7.58677 8.18209 10.249 6.34565C11.313 5.61169 12.1451 5.02476 14.0182 3.80308C14.7035 3.3561 16.1326 3.78174 17.0356 3.61663C18.9982 3.25776 18.7677 2.89769 19.6974 3.38708Z" fill="#B50018"/>
<path id="path24" d="M17.6527 12.4929C17.6527 12.4929 12.0253 11.0186 7.51172 14.6461C7.51172 14.6461 15.9007 16.5861 14.4622 20.6812C11.5287 29.0323 18.9205 29.3197 25.2142 22.8769C27.7132 20.3183 27.7745 14.8543 23.6448 11.1189C23.6448 11.1189 20.2839 10.0379 17.6527 12.4929V12.4929Z" fill="#F21B4E"/>
<path id="path26" d="M26.7187 17.7642C26.0952 19.015 22.7324 23.782 19.0999 24.1297C14.5224 24.5674 17.757 18.3831 14.4863 16.7846C11.2156 15.1861 9.28418 14.9406 9.28418 14.9406C9.28418 14.9406 9.99154 13.8006 11.724 12.6986C14.894 12.0923 17.6523 12.4924 17.6523 12.4924C19.2338 11.017 21.0333 10.7527 22.2354 10.8055C22.6636 10.8574 23.0153 10.9901 23.4689 11.0674C25.7502 13.1302 26.7646 15.5392 26.7187 17.7642Z" fill="#FE677E"/>
<path id="path28" d="M26.5362 20.5341C26.5001 20.6302 26.4798 21.5036 25.2984 22.7945C17.5181 30.2397 11.6057 28.5004 14.2416 20.7576C15.6408 16.6492 7.35791 14.6963 7.35791 14.6963C11.5645 10.9237 17.6513 12.4924 17.6513 12.4924C17.6781 12.4675 17.7044 12.4437 17.7311 12.4202C17.7319 12.4256 17.733 12.4309 17.7344 12.4361C17.9874 12.5812 18.2325 12.7396 18.4688 12.9106L18.3941 12.6509L17.7474 12.4069L17.7333 12.4195C17.7512 12.4016 18.3655 11.629 19.5193 11.1302C20.6929 10.623 22.729 10.4463 23.7297 11.1795C21.847 10.5179 19.4974 11.5193 19.0733 13.3774L19.0495 13.3681C20.7827 14.8716 21.8388 17.0323 21.5745 19.0447C20.7494 16.8717 19.9879 15.3728 18.445 13.5789C17.5694 13.2901 14.5839 12.3895 12.6518 12.8022C10.3665 13.2901 9.93464 15.015 11.3591 15.9733C12.7836 16.9316 14.6146 17.2577 14.9584 18.8551C15.3021 20.4525 14.337 22.15 14.2041 23.6701C14.0532 25.3972 14.5894 26.887 16.3601 26.9199C19.2968 26.9733 24.2393 24.154 26.5362 20.5341V20.5341Z" fill="#B6044A"/>
<path id="path30" d="M18.4696 12.9107C18.2333 12.7398 17.9882 12.5814 17.7352 12.4362C17.7338 12.431 17.7327 12.4257 17.7319 12.4204V12.4204L17.746 12.4077L18.3941 12.6514L18.4696 12.9107Z" fill="#D33886"/>
<path id="path34" d="M24.4792 12.47C24.5463 12.5679 25.258 13.619 24.9049 13.8324C24.5886 14.0241 23.38 13.5641 23.0002 12.7705C22.7438 12.2346 22.8514 11.5175 23.1739 11.4168C23.5656 11.2947 24.2246 12.0996 24.4792 12.47V12.47Z" fill="#FFD6EE"/>
<path id="path36" d="M18.5187 14.443C19.7825 15.6624 20.288 17.1302 20.1017 17.2064C20.0587 17.2241 19.7514 16.9052 19.1383 16.2676C18.2688 15.363 18.0356 15.0857 17.8081 14.7207C17.7647 14.6506 17.2108 13.753 17.3939 13.6598C17.5492 13.5807 18.1735 14.1097 18.5187 14.443V14.443Z" fill="#FFD6EE"/>
<path id="path38" d="M15.5782 25.1742C15.4595 25.2926 16.0935 25.9347 17.0403 26.0448C17.471 26.0947 17.9874 26.0372 18.0246 25.9386C18.0426 25.8906 17.9523 25.8235 17.189 25.5851C16.1607 25.2648 15.6476 25.1034 15.5782 25.1742Z" fill="#FFD6EE"/>
<path id="path40" d="M15.2636 23.6113C15.221 23.7622 15.5445 23.911 15.6677 23.8579C15.7432 23.825 15.7504 23.7135 15.7269 23.6445C15.7042 23.5871 15.6626 23.5391 15.609 23.5086C15.5553 23.4781 15.4928 23.4668 15.4319 23.4766C15.3524 23.4932 15.2802 23.5524 15.2636 23.6113V23.6113Z" fill="#FFD6EE"/>
<path id="path42" d="M15.5604 13.468C15.5214 13.771 14.6061 14.11 13.8442 14.0988C13.113 14.088 12.3511 13.7515 12.4266 13.4489C12.4988 13.1636 13.2968 12.9499 13.8644 12.9152C14.6844 12.8636 15.6009 13.1514 15.5604 13.468V13.468Z" fill="#FFD6EE"/>
<path id="path46" d="M21.23 5.22128C21.7047 6.38496 21.0685 5.10323 20.422 4.52453C19.8384 4.0021 19.0268 3.97088 19.1712 3.80483C19.1966 3.7528 19.6419 3.75128 19.9861 3.876C20.5076 4.06501 20.9942 4.64327 21.23 5.22128V5.22128Z" fill="#F79B7F"/>
<path id="path48" d="M11.794 8.64897C11.9099 8.71397 13.4469 7.71777 14.1636 7.20503C14.9291 6.75042 14.9414 6.39384 15.3679 6.20754C15.5608 6.12328 15.7214 6.05018 16.3475 6.07428C15.8625 5.91331 15.6499 5.89297 15.5548 5.49592C15.4563 5.08476 14.8323 3.83178 14.4535 3.87873C14.0748 3.92567 14.198 5.22639 13.4713 6.4664C12.7155 7.75586 11.6557 8.5717 11.794 8.64897V8.64897Z" fill="#B50018"/>
<path id="path50" d="M14.1806 6.1973C14.0876 6.62331 14.0424 6.83631 14.1054 6.85406C14.2765 6.90182 15.0043 6.38072 14.9802 5.87526C14.965 5.55872 14.6565 5.28359 14.4823 5.32796C14.4443 5.33811 14.3594 5.37741 14.1806 6.1973V6.1973Z" fill="#F79B7F"/>
<path id="path159" d="M7.9147 9.97632C7.30434 12.1908 8.18276 10.3093 8.81418 9.27052C9.45424 8.21749 11.0811 6.9043 9.90372 7.37708C9.09729 7.70091 8.07979 9.37736 7.9147 9.97632V9.97632Z" fill="#F79B7F"/>
<path id="path48-4" d="M16.4238 6.0515C17.9549 6.30471 18.9043 5.56982 19.6103 5.7538C20.0842 5.87729 20.3081 6.5847 20.8112 7.02208C19.7947 5.98539 19.8753 4.47179 19.2649 4.20073C18.5289 4.07446 19.6145 4.84642 18.6548 5.41679C18.2012 5.88471 17.0513 6.03801 16.4238 6.0515V6.0515Z" fill="#B50018"/>
<path id="path50-9" d="M18.4506 5.20984C18.1733 5.45864 17.486 5.79364 17.5208 5.8374C17.6156 5.95602 18.8494 5.54748 19.0852 5.18512C19.3981 4.7571 19.1689 4.273 19.0181 4.24436C18.6813 4.18037 18.9841 4.73092 18.4506 5.20984V5.20984Z" fill="#F79B7F"/>
<path id="path44" d="M14.3624 3.96776C14.2897 4.14923 15.1114 4.6357 15.7155 4.48493C15.9506 4.42628 16.2762 4.17707 16.2727 4.04618C16.2676 3.86798 15.4989 3.84313 15.1435 3.84461C14.8946 3.84565 14.4193 3.8263 14.3624 3.96776Z" fill="#F79B7F"/>
</g>
</g>
</g>
</g>
</g>
<defs>
<clipPath id="clip0_103_193">
<rect width="32" height="32" rx="16" fill="white"/>
</clipPath>
</defs>
</svg>
