<svg width="29" height="29" viewBox="0 0 29 29" fill="none" xmlns="http://www.w3.org/2000/svg">
<g id="Burger Menu ">
<path id="Union" fill-rule="evenodd" clip-rule="evenodd" d="M1.41879 24.5858C0.637746 25.3669 0.637746 26.6332 1.41879 27.4143C2.19984 28.1953 3.46617 28.1953 4.24722 27.4143L14.4188 17.2427L24.7533 27.5772C25.5344 28.3582 26.8007 28.3582 27.5817 27.5772C28.3628 26.7962 28.3628 25.5298 27.5817 24.7488L17.2472 14.4143L27.5817 4.07974C28.3628 3.29869 28.3628 2.03236 27.5817 1.25131C26.8007 0.470265 25.5344 0.470265 24.7533 1.25131L14.4188 11.5858L4.24722 1.41425C3.46617 0.633204 2.19984 0.633204 1.41879 1.41425C0.637745 2.1953 0.637746 3.46163 1.41879 4.24268L11.5904 14.4143L1.41879 24.5858Z" fill="#41456B"/>
</g>
</svg>
