<svg width="11" height="11" viewBox="0 0 11 11" fill="none" xmlns="http://www.w3.org/2000/svg">
<g id="Group 146">
<path id="Vector 1 (Stroke)" fill-rule="evenodd" clip-rule="evenodd" d="M10.7908 0.28897C11.0986 0.640664 11.0629 1.17523 10.7112 1.48297L6.47487 5.18977L10.7112 8.89657C11.0629 9.20431 11.0986 9.73888 10.7908 10.0906C10.4831 10.4423 9.94852 10.4779 9.59683 10.1702L4.63271 5.82657C4.44908 5.66589 4.34375 5.43377 4.34375 5.18977C4.34375 4.94577 4.44908 4.71365 4.63271 4.55297L9.59683 0.20937C9.94852 -0.0983615 10.4831 -0.0627235 10.7908 0.28897Z" fill="#8E9093"/>
<path id="Vector 2 (Stroke)" fill-rule="evenodd" clip-rule="evenodd" d="M0.209179 0.28897C-0.098553 0.640664 -0.062915 1.17523 0.288779 1.48297L4.52513 5.18977L0.288779 8.89657C-0.062915 9.20431 -0.098553 9.73888 0.209179 10.0906C0.516911 10.4423 1.05148 10.4779 1.40317 10.1702L6.36729 5.82657C6.55092 5.66589 6.65625 5.43377 6.65625 5.18977C6.65625 4.94577 6.55092 4.71365 6.36729 4.55297L1.40317 0.20937C1.05148 -0.0983615 0.516911 -0.0627235 0.209179 0.28897Z" fill="#8E9093"/>
</g>
</svg>
