<svg width="19" height="19" viewBox="0 0 19 19" fill="none" xmlns="http://www.w3.org/2000/svg">
<g id="TasteNFT_logo 1">
<g clip-path="url(#clip0_103_290)">
<g id="g1041">
<path id="path867" d="M9.50009 18.9631C14.7263 18.9631 18.9631 14.7263 18.9631 9.50009C18.9631 4.27383 14.7263 0.0371094 9.50009 0.0371094C4.27383 0.0371094 0.0371094 4.27383 0.0371094 9.50009C0.0371094 14.7263 4.27383 18.9631 9.50009 18.9631Z" fill="white" stroke="white" stroke-width="5"/>
<g id="g1507">
<g id="g1257">
<path id="path6" d="M11.4759 4.77736C11.4759 4.77736 10.4926 5.22163 10.379 6.12869C10.2654 7.03574 9.41641 7.94294 8.58458 8.20684C7.76801 8.46615 7.21356 9.21089 6.28193 8.75196C5.10564 8.17248 3.1778 7.23403 2.35205 7.45632C2.53736 7.23819 2.90557 6.90099 3.00435 6.63236C3.15081 6.22467 3.22579 5.96567 3.27229 5.64831C3.3684 4.99346 4.18607 3.70355 5.28535 3.04262C5.67438 2.80938 6.28239 2.06557 6.9473 2.21199C7.65441 2.36771 8.19574 1.8991 8.76485 2.21528C9.33396 2.53145 10.0339 3.40817 10.2944 3.8708C10.6905 4.5744 11.4759 4.77736 11.4759 4.77736Z" fill="#95001A"/>
<path id="path8" d="M10.2639 5.22998C10.2639 5.22998 9.92077 7.98432 8.02995 7.8189C6.13913 7.65349 6.76466 6.89363 3.23389 6.77472C3.23389 6.77472 4.17767 5.88943 6.06242 5.68817C7.94716 5.48692 10.2639 5.22998 10.2639 5.22998Z" fill="#780016"/>
<path id="path12" d="M8.90427 3.02988C9.45071 3.66168 9.88795 4.80897 11.4016 4.78439C11.4016 4.78439 10.0805 5.16305 9.1358 4.46347C8.59942 4.066 7.59338 3.88427 7.59338 3.88427L3.2338 6.77473L2.27344 7.46201C3.12762 6.74126 3.9008 6.0513 4.36625 5.19401C4.82637 4.34678 5.40007 4.25675 6.23253 3.74233C6.92736 3.31297 7.02471 3.02014 7.13801 3.04103C8.42324 3.278 8.49907 2.56138 8.90427 3.02988V3.02988Z" fill="#69001F"/>
<path id="path14" d="M10.9824 4.84142C10.5215 5.02609 10.4049 5.21639 10.2054 5.38743C9.59228 5.9127 9.17659 6.21229 8.69871 6.32188C7.8158 6.52417 6.65203 6.35666 4.86562 6.4424C3.97974 6.48505 3.4637 6.67461 3.11377 6.86389C3.11377 6.86389 4.28045 5.53288 5.33678 4.98332C6.31551 4.47418 6.64245 3.96654 7.29862 3.7996C7.75755 3.68284 7.86427 3.75934 8.38936 3.66733C8.61991 3.62693 8.92974 3.97245 9.06953 4.08261C9.53349 4.44824 10.1971 4.83876 10.9824 4.84142V4.84142Z" fill="#36000A"/>
<path id="path16" d="M5.46197 8.07836C6.1383 8.66095 7.20944 9.21169 8.34707 8.71174C9.4847 8.21179 10.1242 7.41285 10.3796 6.5249C10.3944 6.85736 10.3537 7.54376 9.76444 8.24674C9.56748 8.48191 9.27693 8.82 8.71507 9.07279C7.91287 9.43383 7.14635 9.35534 6.9756 9.33461C6.75065 9.30706 6.52585 9.25242 5.84834 8.92544C4.49494 8.27236 4.18558 7.9085 3.23484 7.64416C2.91986 7.55739 2.59833 7.49648 2.27344 7.46201L2.67698 7.17324C2.67698 7.17324 4.78579 7.49563 5.46197 8.07836V8.07836Z" fill="#69001F"/>
<path id="path18" d="M11.4016 4.78418C11.4016 4.78418 10.5054 5.30027 9.69678 6.24791C9.69678 6.24791 10.1729 4.99684 10.7835 4.83423C10.7829 4.83423 11.2738 4.81557 11.4016 4.78418V4.78418Z" fill="#810716"/>
<path id="path22" d="M8.78168 1.9673C9.17355 2.17358 9.37722 2.25104 9.64579 2.6373C9.8427 2.92049 10.1034 3.47001 10.3196 3.82683C10.6946 4.44556 10.9941 4.48852 11.3971 4.78265C11.3971 4.78265 10.3922 4.69733 9.69344 3.30011C9.51105 2.93541 9.16931 2.45362 8.69792 2.34391C8.47802 2.29273 8.22989 2.32252 7.95657 2.48295C7.42154 2.79699 7.13657 2.43711 6.74976 2.54976C6.35213 2.66557 6.31629 2.98465 5.66632 3.15792C3.54773 3.93718 4.02473 6.39829 2.27344 7.46205C2.27344 7.46219 2.8055 7.00961 3.05114 6.22312C3.45018 4.94549 3.81476 3.93387 4.90663 3.1807C5.343 2.87968 5.68428 2.63896 6.45248 2.13792C6.73354 1.9546 7.31965 2.12917 7.69001 2.06145C8.49493 1.91427 8.4004 1.76659 8.78168 1.9673Z" fill="#B50018"/>
<path id="path24" d="M7.9428 5.70175C7.9428 5.70175 5.63483 5.09712 3.78369 6.58484C3.78369 6.58484 7.22426 7.3805 6.63427 9.06C5.43118 12.485 8.46275 12.6029 11.044 9.96054C12.0689 8.91117 12.0941 6.67023 10.4003 5.13823C10.4003 5.13823 9.02194 4.69488 7.9428 5.70175V5.70175Z" fill="#F21B4E"/>
<path id="path26" d="M11.6612 7.86383C11.4054 8.37682 10.0262 10.3319 8.53644 10.4745C6.65909 10.654 7.98569 8.11766 6.64429 7.46206C5.30288 6.80647 4.51074 6.70577 4.51074 6.70577C4.51074 6.70577 4.80085 6.23825 5.51139 5.78628C6.81148 5.53763 7.94274 5.70172 7.94274 5.70172C8.59138 5.09662 9.32939 4.98822 9.82239 5.00984C9.99802 5.03117 10.1423 5.08557 10.3283 5.11726C11.2639 5.9633 11.68 6.9513 11.6612 7.86383Z" fill="#FE677E"/>
<path id="path28" d="M11.5867 8.99989C11.5719 9.03929 11.5636 9.39752 11.0791 9.92694C7.88818 12.9804 5.46334 12.2671 6.5444 9.09156C7.11826 7.40659 3.72119 6.60565 3.72119 6.60565C5.44645 5.0584 7.94282 5.70177 7.94282 5.70177C7.95378 5.69155 7.96459 5.68177 7.97555 5.67215C7.97585 5.67435 7.9763 5.67652 7.97688 5.67866C8.08064 5.73819 8.18118 5.80314 8.2781 5.87325L8.24745 5.76678L7.98222 5.66667L7.97644 5.67185C7.98378 5.66451 8.23572 5.34765 8.70894 5.1431C9.19024 4.93505 10.0253 4.86259 10.4357 5.1633C9.66358 4.89196 8.69994 5.30267 8.526 6.06474L8.51623 6.06089C9.22706 6.67754 9.66023 7.56371 9.55183 8.38902C9.21344 7.49781 8.90112 6.88309 8.26833 6.14737C7.90921 6.0289 6.68479 5.65956 5.89236 5.82883C4.9551 6.0289 4.77798 6.73633 5.3622 7.12936C5.94641 7.52239 6.69738 7.65612 6.83836 8.31127C6.97935 8.96643 6.5835 9.6626 6.529 10.2861C6.4671 10.9944 6.68702 11.6054 7.41325 11.6189C8.61767 11.6408 10.6447 10.4845 11.5867 8.99989V8.99989Z" fill="#B6044A"/>
<path id="path30" d="M8.27812 5.87328C8.18121 5.80317 8.08067 5.73822 7.97692 5.67869C7.97633 5.67655 7.97589 5.67437 7.97559 5.67218V5.67218L7.98136 5.66699L8.24717 5.76695L8.27812 5.87328Z" fill="#D33886"/>
<path id="path34" d="M10.7428 5.69247C10.7703 5.7326 11.0622 6.16369 10.9174 6.25121C10.7876 6.32985 10.292 6.14118 10.1362 5.81568C10.031 5.59591 10.0752 5.3018 10.2074 5.26049C10.3681 5.21043 10.6384 5.54053 10.7428 5.69247V5.69247Z" fill="#FFD6EE"/>
<path id="path36" d="M8.29825 6.50172C8.81657 7.00182 9.02389 7.60381 8.94748 7.63506C8.92986 7.64231 8.80383 7.51155 8.55237 7.25002C8.19577 6.87905 8.1001 6.76532 8.0068 6.6156C7.98903 6.58687 7.76186 6.21871 7.83694 6.18051C7.90062 6.14807 8.15667 6.36503 8.29825 6.50172V6.50172Z" fill="#FFD6EE"/>
<path id="path38" d="M7.09228 10.9027C7.04356 10.9513 7.30361 11.2146 7.6919 11.2598C7.86857 11.2803 8.08034 11.2567 8.09559 11.2163C8.10299 11.1966 8.06597 11.169 7.75291 11.0713C7.33115 10.9399 7.12072 10.8737 7.09228 10.9027Z" fill="#FFD6EE"/>
<path id="path40" d="M6.96349 10.2617C6.94601 10.3236 7.07871 10.3846 7.12921 10.3629C7.16016 10.3494 7.16313 10.3036 7.1535 10.2754C7.1442 10.2518 7.12714 10.2321 7.10513 10.2196C7.08312 10.2071 7.0575 10.2025 7.0325 10.2065C6.99992 10.2133 6.9703 10.2376 6.96349 10.2617V10.2617Z" fill="#FFD6EE"/>
<path id="path42" d="M7.08526 6.10176C7.06927 6.226 6.69386 6.36505 6.38138 6.36046C6.0815 6.35602 5.76903 6.218 5.79998 6.09391C5.8296 5.97692 6.15688 5.88925 6.38968 5.87503C6.72599 5.85386 7.10185 5.97188 7.08526 6.10176V6.10176Z" fill="#FFD6EE"/>
<path id="path46" d="M9.4104 2.7196C9.60509 3.19686 9.34415 2.67119 9.07901 2.43385C8.83965 2.21958 8.50681 2.20678 8.56601 2.13868C8.57642 2.11734 8.75908 2.11672 8.90021 2.16787C9.1141 2.24538 9.3137 2.48254 9.4104 2.7196V2.7196Z" fill="#F79B7F"/>
<path id="path48" d="M5.54068 4.1254C5.58822 4.15205 6.21857 3.74348 6.51253 3.5332C6.82645 3.34675 6.8315 3.2005 7.00643 3.1241C7.08555 3.08954 7.15143 3.05956 7.40821 3.06944C7.20929 3.00342 7.1221 2.99508 7.08309 2.83224C7.0427 2.66361 6.78677 2.14973 6.63143 2.16898C6.47608 2.18824 6.52662 2.7217 6.22856 3.23026C5.91862 3.75911 5.48396 4.09371 5.54068 4.1254V4.1254Z" fill="#B50018"/>
<path id="path50" d="M6.51939 3.11971C6.48126 3.29442 6.46271 3.38178 6.48854 3.38906C6.55874 3.40865 6.85721 3.19493 6.84733 2.98763C6.84109 2.8578 6.71456 2.74497 6.64315 2.76317C6.62755 2.76733 6.59271 2.78345 6.51939 3.11971V3.11971Z" fill="#F79B7F"/>
<path id="path159" d="M3.94932 4.66971C3.69899 5.57792 4.05926 4.80629 4.31822 4.38025C4.58073 3.94837 5.24794 3.40979 4.76507 3.60369C4.43433 3.73651 4.01703 4.42406 3.94932 4.66971V4.66971Z" fill="#F79B7F"/>
<path id="path48-4" d="M7.43896 3.06009C8.06689 3.16394 8.45628 2.86254 8.74584 2.93799C8.9402 2.98864 9.03201 3.27877 9.23835 3.45815C8.82144 3.03298 8.85452 2.41221 8.60417 2.30104C8.30234 2.24925 8.74756 2.56585 8.35397 2.79978C8.16793 2.99169 7.69632 3.05456 7.43896 3.06009V3.06009Z" fill="#B50018"/>
<path id="path50-9" d="M8.27002 2.71496C8.1563 2.817 7.87444 2.95439 7.88871 2.97234C7.92757 3.02099 8.43359 2.85343 8.53032 2.70482C8.65865 2.52928 8.56464 2.33073 8.50278 2.31899C8.36464 2.29274 8.48884 2.51854 8.27002 2.71496V2.71496Z" fill="#F79B7F"/>
<path id="path44" d="M6.59365 2.20544C6.56382 2.27987 6.90083 2.47939 7.14858 2.41755C7.24499 2.3935 7.37854 2.29129 7.3771 2.23761C7.37504 2.16452 7.05977 2.15433 6.91401 2.15494C6.81192 2.15536 6.61698 2.14743 6.59365 2.20544Z" fill="#F79B7F"/>
</g>
<g id="g1153">
<path id="polygon54" d="M3.70654 15.8859V10.5792L4.96842 10.1511L6.26169 11.296L6.5641 11.5636L6.57194 11.5705L6.87479 11.8386V9.50423L8.51593 8.94727V14.2541L7.57274 14.5741L6.28583 13.2512L5.672 12.6205V15.219L3.70654 15.8859Z" fill="#610300"/>
<path id="polygon56" d="M8.83643 14.1268V8.83881L9.73148 8.53508L10.4272 8.29902L10.4336 8.2968L11.3623 7.98181L12.0581 7.74561V9.32943L11.3623 9.56549L10.4336 9.88063L10.4272 9.88285V10.2626L10.4336 10.2603L11.3623 9.94534V11.529L10.4336 11.8442L10.4272 11.8462V13.6057L8.83643 14.1268Z" fill="#610300"/>
<path id="polygon58" d="M15.5669 11.8559L13.9697 12.4006V8.68089L12.3726 9.22275V7.63892L13.9697 7.09706L15.5667 6.55519H15.5669L17.1639 6.01318V7.59701L15.5669 8.13887H15.5667V11.8373L15.5669 11.8371V11.8559Z" fill="#610300"/>
<path id="polygon60" d="M3.71436 15.883V10.5962L4.14382 10.9797V16.2665L3.71436 15.883Z" fill="white"/>
<path id="path62" d="M3.72135 10.6126L4.13601 10.9828V16.2497L3.72135 15.8794V10.6126ZM3.70654 10.5796V15.8863L4.15082 16.283V10.9763L3.70654 10.5796Z" fill="#231F20"/>
<path id="polygon64" d="M3.72119 10.5825L4.96693 10.1597L5.39847 10.5451L4.15273 10.9679L3.72119 10.5825Z" fill="white"/>
<path id="path66" d="M4.96502 10.1682L5.38456 10.5423L4.15541 10.9596L3.73661 10.5856L4.96576 10.1682H4.96502ZM4.96917 10.1514L3.70654 10.5802L4.15082 10.977L5.4127 10.5488L4.96843 10.152L4.96917 10.1514Z" fill="#231F20"/>
<path id="polygon68" d="M6.88232 11.8355V9.521L7.31179 9.90455V12.2191L6.88232 11.8355Z" fill="white"/>
<path id="path70" d="M6.88981 9.53708L7.30446 9.9073V12.202L6.88981 11.8317V9.53708V9.53708ZM6.875 9.50391V11.8384L7.31927 12.2351V9.90079L6.875 9.50391Z" fill="#231F20"/>
<path id="polygon72" d="M7.57784 14.5689L6.11914 13.0694L6.1224 13.0342L7.8647 14.8251L7.57784 14.5689Z" fill="white"/>
<path id="path74" d="M6.12826 13.0509L7.71282 14.679L7.58369 14.5636L6.12722 13.0667L6.1287 13.0509H6.12826ZM6.11685 13.0176L6.11182 13.0722L7.57332 14.5744L8.01759 14.9712L6.11641 13.0176H6.11685Z" fill="#231F20"/>
<path id="polygon78" d="M8.84375 14.1235V8.85547L9.27321 9.23902V14.507L8.84375 14.1235Z" fill="white"/>
<path id="path80" d="M8.85123 8.87189L9.26589 9.24212V14.4903L8.85123 14.12V8.87189ZM8.83643 8.83887V14.1267L9.2807 14.5236V9.2356L8.83643 8.83887Z" fill="#231F20"/>
<path id="polygon82" d="M10.4419 10.2652L11.3608 9.95361L11.7923 10.339L10.8734 10.6507L10.4419 10.2652Z" fill="white"/>
<path id="path84" d="M11.3588 9.96228L11.7777 10.3363L10.8744 10.6426L10.456 10.2692L11.3594 9.96302L11.3588 9.96228ZM11.3628 9.94629L10.4277 10.2633L10.872 10.6602L11.807 10.343L11.3628 9.94629Z" fill="#231F20"/>
<path id="path86" d="M14.406 12.7879C14.3564 12.7654 14.1221 12.5423 13.9766 12.3974V8.69727L14.406 9.08082V12.7879Z" fill="white"/>
<path id="path88" d="M13.984 8.71398L14.3987 9.08421V12.7754C14.3395 12.7373 14.1509 12.5605 13.984 12.3945V8.71398ZM13.9692 8.68081V12.4004C13.9692 12.4004 14.3676 12.7973 14.4126 12.7973H14.4135V9.07755L13.9692 8.68066V8.68081Z" fill="#231F20"/>
<path id="polygon90" d="M12.3799 9.21976V7.65576L12.8093 8.03932V9.60331L12.3799 9.21976Z" fill="white"/>
<path id="path92" d="M12.3869 7.67218L12.8015 8.04241V9.5867L12.3869 9.21647V7.67218ZM12.3721 7.63916V9.22373L12.8163 9.62046V8.03589L12.3721 7.63916Z" fill="#231F20"/>
<path id="polygon94" d="M12.3867 7.64175L17.1619 6.02148L17.5936 6.40682L12.8183 8.02723L12.3867 7.64175Z" fill="white"/>
<path id="path96" d="M17.16 6.02992L17.5789 6.40385L12.8197 8.01805L12.4009 7.64486L17.16 6.03066V6.02992ZM17.1634 6.01392L12.3721 7.63893L12.8163 8.03567L17.6077 6.40992L17.1634 6.01318V6.01392Z" fill="#231F20"/>
<path id="polygon98" d="M6.88916 9.50754L8.51416 8.95605L8.94584 9.34139L7.3207 9.89287L6.88916 9.50754Z" fill="white"/>
<path id="path100" d="M8.51273 8.9643L8.93168 9.33837L7.32268 9.88409L6.90388 9.51001L8.51273 8.964V8.9643ZM8.51614 8.94727L6.875 9.50408L7.31927 9.90097L8.96041 9.344L8.51614 8.94727Z" fill="#231F20"/>
<path id="polygon102" d="M8.85107 8.84163L12.0567 7.75391L12.4883 8.13924L9.28261 9.22696L8.85107 8.84163Z" fill="white"/>
<path id="path104" d="M12.0547 7.76234L12.4737 8.13656L9.28411 9.21866L8.86471 8.84459L12.0542 7.76234H12.0547ZM12.0576 7.74561L8.83643 8.83881L9.2807 9.23554L12.5024 8.14234L12.0582 7.74561H12.0576Z" fill="#231F20"/>
<path id="polygon106" d="M4.15088 16.2829V10.9762L5.41276 10.5481L6.70603 11.693L7.00843 11.9606L7.01628 11.9675L7.31913 12.2356V9.90121L8.96026 9.34424V14.6511L8.01708 14.9711L6.73017 13.6484L6.11634 13.0175V15.616L4.15088 16.2829Z" fill="#050505"/>
<path id="polygon108" d="M9.28076 14.5233V9.23529L10.1758 8.93171L10.8715 8.6955L10.8779 8.69328L11.8066 8.37829L12.5025 8.14209V9.72592L11.8066 9.96197L10.8779 10.2773L10.8715 10.2793V10.659L10.8779 10.657L11.8066 10.3418V11.9255L10.8779 12.2406L10.8715 12.2427V14.0022L9.28076 14.5233Z" fill="#050505"/>
<path id="polygon110" d="M16.0107 12.2529L14.4136 12.7976V9.07787L12.8164 9.61973V8.0359L14.4136 7.49418L16.0106 6.95217H16.0107L17.6077 6.41016V7.99399L16.0107 8.53586H16.0106V12.2343L16.0107 12.2341V12.2529Z" fill="#050505"/>
</g>
</g>
</g>
</g>
</g>
<defs>
<clipPath id="clip0_103_290">
<rect width="19" height="19" rx="9.5" fill="white"/>
</clipPath>
</defs>
</svg>
