<svg width="37" height="23" viewBox="0 0 37 23" fill="none" xmlns="http://www.w3.org/2000/svg">
<g id="logo img">
<path id="Vector" fill-rule="evenodd" clip-rule="evenodd" d="M14.418 9.06525H5.40649L0 3.62063e-09H6.44489C7.22734 -3.13319e-05 7.99642 0.203338 8.67699 0.590239C9.35755 0.977139 9.92632 1.53434 10.3277 2.20739L14.418 9.06525Z" fill="#D2D6FF"/>
<path id="Vector_2" fill-rule="evenodd" clip-rule="evenodd" d="M25.8556 2.17113L21.6555 9.06525H5.37012L12.2634 20.4778C12.6665 21.1449 13.2345 21.6966 13.9125 22.0794C14.5906 22.4623 15.3557 22.6633 16.134 22.6631H20.0756C20.8595 22.663 21.6299 22.4588 22.3112 22.0705C22.9926 21.6821 23.5616 21.123 23.9623 20.448L30.7187 9.06525L36.2415 4.93329e-10H29.7165C28.9412 -1.14602e-05 28.1789 0.199663 27.5028 0.579858C26.8268 0.960054 26.2595 1.50801 25.8556 2.17113Z" fill="white"/>
</g>
</svg>
