<svg width="42" height="16" viewBox="0 0 42 16" fill="none" xmlns="http://www.w3.org/2000/svg">
<path d="M5.69653 15.1743L0.927097 0.967496H3.97142L7.44194 11.8865L10.8922 0.967496H13.9568L9.16705 15.1743H5.69653ZM24.0522 15.1743L23.1998 12.6171H17.5373L16.6849 15.1743H13.6609L18.6333 0.967496H22.1038L27.0965 15.1743H24.0522ZM18.4303 9.99897H22.3271L20.3787 4.19447L18.4303 9.99897ZM35.1046 15.4585C32.9669 15.4585 31.2012 14.7481 29.8075 13.3274C28.4139 11.9067 27.7171 10.1546 27.7171 8.07091C27.7171 5.97371 28.4139 4.22154 29.8075 2.81438C31.2012 1.3937 32.9669 0.68336 35.1046 0.68336C36.39 0.68336 37.5739 0.987792 38.6564 1.59666C39.7523 2.19199 40.6047 3.00381 41.2136 4.03211L38.7984 5.4325C38.4466 4.79657 37.946 4.30272 37.2966 3.95093C36.6471 3.58561 35.9165 3.40295 35.1046 3.40295C33.7246 3.40295 32.6083 3.83592 31.7559 4.70186C30.917 5.5678 30.4976 6.69082 30.4976 8.07091C30.4976 9.43747 30.917 10.5537 31.7559 11.4197C32.6083 12.2856 33.7246 12.7186 35.1046 12.7186C35.9165 12.7186 36.6471 12.5427 37.2966 12.1909C37.9595 11.8256 38.4602 11.3317 38.7984 10.7093L41.2136 12.1097C40.6047 13.138 39.7591 13.9566 38.6766 14.5655C37.5942 15.1608 36.4036 15.4585 35.1046 15.4585Z" fill="white"/>
</svg>
