<svg width="42" height="16" viewBox="0 0 42 16" fill="none" xmlns="http://www.w3.org/2000/svg">
<path d="M5.69653 15.1744L0.927097 0.967618H3.97142L7.44194 11.8866L10.8922 0.967618H13.9568L9.16705 15.1744H5.69653ZM24.0522 15.1744L23.1998 12.6172H17.5373L16.6849 15.1744H13.6609L18.6333 0.967618H22.1038L27.0965 15.1744H24.0522ZM18.4303 9.9991H22.3271L20.3787 4.1946L18.4303 9.9991ZM35.1046 15.4586C32.9669 15.4586 31.2012 14.7482 29.8075 13.3276C28.4139 11.9069 27.7171 10.1547 27.7171 8.07103C27.7171 5.97383 28.4139 4.22166 29.8075 2.81451C31.2012 1.39382 32.9669 0.683482 35.1046 0.683482C36.39 0.683482 37.5739 0.987914 38.6564 1.59678C39.7523 2.19211 40.6047 3.00393 41.2136 4.03223L38.7984 5.43262C38.4466 4.7967 37.946 4.30284 37.2966 3.95105C36.6471 3.58573 35.9165 3.40307 35.1046 3.40307C33.7246 3.40307 32.6083 3.83604 31.7559 4.70198C30.917 5.56792 30.4976 6.69094 30.4976 8.07103C30.4976 9.43759 30.917 10.5538 31.7559 11.4198C32.6083 12.2857 33.7246 12.7187 35.1046 12.7187C35.9165 12.7187 36.6471 12.5428 37.2966 12.191C37.9595 11.8257 38.4602 11.3318 38.7984 10.7094L41.2136 12.1098C40.6047 13.1381 39.7591 13.9567 38.6766 14.5656C37.5942 15.1609 36.4036 15.4586 35.1046 15.4586Z" fill="#7380FF"/>
</svg>
