<svg width="13" height="13" viewBox="0 0 13 13" fill="none" xmlns="http://www.w3.org/2000/svg">
<path d="M6.72 0.351999C7.50933 0.351999 8.26133 0.490666 8.976 0.768C9.69067 1.04533 10.32 1.44533 10.864 1.968C11.408 2.48 11.84 3.11467 12.16 3.872C12.4907 4.62933 12.656 5.488 12.656 6.448C12.656 6.59733 12.6453 6.8 12.624 7.056C12.6133 7.30133 12.5813 7.56267 12.528 7.84C12.4747 8.11733 12.3947 8.4 12.288 8.688C12.1813 8.976 12.0373 9.23733 11.856 9.472C11.6747 9.70667 11.4507 9.89333 11.184 10.032C10.9173 10.1813 10.5973 10.256 10.224 10.256C9.94667 10.256 9.71733 10.2133 9.536 10.128C9.35467 10.0533 9.21067 9.952 9.104 9.824C8.99733 9.696 8.91733 9.552 8.864 9.392C8.82133 9.22133 8.78933 9.05067 8.768 8.88C8.45867 9.21067 8.064 9.48267 7.584 9.696C7.11467 9.89867 6.60267 10 6.048 10C5.25867 10 4.656 9.792 4.24 9.376C3.824 8.96 3.616 8.432 3.616 7.792C3.616 7.36533 3.70133 7.008 3.872 6.72C4.05333 6.42133 4.28267 6.18667 4.56 6.016C4.848 5.83467 5.168 5.70667 5.52 5.632C5.88267 5.55733 6.24 5.52 6.592 5.52C7.04 5.52 7.42933 5.56267 7.76 5.648C8.09067 5.73333 8.336 5.808 8.496 5.872C8.496 5.552 8.46933 5.25867 8.416 4.992C8.36267 4.72533 8.26133 4.496 8.112 4.304C7.97333 4.112 7.78133 3.96267 7.536 3.856C7.29067 3.74933 6.98133 3.696 6.608 3.696C6.17067 3.696 5.76533 3.76 5.392 3.888C5.02933 4.016 4.70933 4.192 4.432 4.416L4.08 3.456C4.47467 3.2 4.896 3.00267 5.344 2.864C5.792 2.72533 6.26667 2.656 6.768 2.656C7.41867 2.656 7.93067 2.76267 8.304 2.976C8.688 3.17867 8.97067 3.44 9.152 3.76C9.344 4.08 9.46133 4.43733 9.504 4.832C9.55733 5.22667 9.584 5.60533 9.584 5.968V7.696C9.584 7.93067 9.58933 8.15467 9.6 8.368C9.62133 8.57067 9.65867 8.752 9.712 8.912C9.76533 9.072 9.84533 9.2 9.952 9.296C10.0587 9.38133 10.2027 9.424 10.384 9.424C10.6827 9.424 10.928 9.31733 11.12 9.104C11.3227 8.88 11.4773 8.61333 11.584 8.304C11.6907 7.984 11.7653 7.65333 11.808 7.312C11.8507 6.96 11.872 6.66133 11.872 6.416C11.872 5.65867 11.744 4.95467 11.488 4.304C11.232 3.65333 10.8747 3.09333 10.416 2.624C9.95733 2.144 9.408 1.77067 8.768 1.504C8.128 1.22667 7.42933 1.088 6.672 1.088C5.92533 1.088 5.23733 1.22133 4.608 1.488C3.97867 1.744 3.42933 2.10667 2.96 2.576C2.50133 3.03467 2.13867 3.584 1.872 4.224C1.616 4.864 1.488 5.56267 1.488 6.32C1.488 7.04533 1.61067 7.728 1.856 8.368C2.10133 9.008 2.44267 9.568 2.88 10.048C3.328 10.528 3.86133 10.9067 4.48 11.184C5.09867 11.4613 5.78133 11.6 6.528 11.6C7.02933 11.6 7.46667 11.5413 7.84 11.424C8.224 11.3173 8.61333 11.1733 9.008 10.992L9.264 11.696C8.816 11.9093 8.36267 12.0693 7.904 12.176C7.44533 12.2827 6.98133 12.336 6.512 12.336C5.712 12.336 4.96 12.1867 4.256 11.888C3.552 11.6 2.93333 11.1893 2.4 10.656C1.87733 10.1227 1.46133 9.488 1.152 8.752C0.853333 8.016 0.704 7.20533 0.704 6.32C0.704 5.392 0.869333 4.56 1.2 3.824C1.53067 3.07733 1.97333 2.448 2.528 1.936C3.08267 1.424 3.72267 1.03467 4.448 0.768C5.17333 0.490666 5.93067 0.351999 6.72 0.351999ZM7.584 8.704C7.936 8.53333 8.17067 8.33067 8.288 8.096C8.416 7.85067 8.48 7.6 8.48 7.344V6.736C8.33067 6.704 8.09067 6.64 7.76 6.544C7.42933 6.448 7.04 6.4 6.592 6.4C6.06933 6.4 5.62133 6.50133 5.248 6.704C4.88533 6.90667 4.704 7.25333 4.704 7.744C4.704 8.11733 4.832 8.42667 5.088 8.672C5.344 8.91733 5.696 9.04 6.144 9.04C6.37867 9.04 6.624 9.008 6.88 8.944C7.136 8.88 7.37067 8.8 7.584 8.704Z" fill="white" fill-opacity="0.5"/>
</svg>
