<svg width="72" height="24" viewBox="0 0 72 24" fill="none" xmlns="http://www.w3.org/2000/svg">
<path d="M14 20L6 12L14 4" stroke="#606276" stroke-width="2" stroke-linecap="round" stroke-linejoin="round"/>
<path d="M36.808 12.192C37.7893 12.7573 38.28 13.6107 38.28 14.752C38.28 15.7013 37.944 16.48 37.272 17.088C36.6 17.696 35.7733 18 34.792 18H30.04V6.8H34.456C35.416 6.8 36.2213 7.09867 36.872 7.696C37.5333 8.28267 37.864 9.03467 37.864 9.952C37.864 10.88 37.512 11.6267 36.808 12.192ZM34.456 8.864H32.248V11.328H34.456C34.7973 11.328 35.08 11.2107 35.304 10.976C35.5387 10.7413 35.656 10.448 35.656 10.096C35.656 9.744 35.544 9.45067 35.32 9.216C35.096 8.98133 34.808 8.864 34.456 8.864ZM34.792 15.936C35.1653 15.936 35.4747 15.8133 35.72 15.568C35.9653 15.312 36.088 14.992 36.088 14.608C36.088 14.2347 35.9653 13.9253 35.72 13.68C35.4747 13.424 35.1653 13.296 34.792 13.296H32.248V15.936H34.792ZM47.2475 18L46.5755 15.984H42.1115L41.4395 18H39.0555L42.9755 6.8H45.7115L49.6475 18H47.2475ZM42.8155 13.92H45.8875L44.3515 9.344L42.8155 13.92ZM55.9607 18.224C54.2754 18.224 52.8834 17.664 51.7847 16.544C50.6861 15.424 50.1367 14.0427 50.1367 12.4C50.1367 10.7467 50.6861 9.36533 51.7847 8.256C52.8834 7.136 54.2754 6.576 55.9607 6.576C56.9741 6.576 57.9074 6.816 58.7607 7.296C59.6248 7.76533 60.2968 8.40533 60.7767 9.216L58.8728 10.32C58.5954 9.81867 58.2007 9.42933 57.6887 9.152C57.1767 8.864 56.6007 8.72 55.9607 8.72C54.8727 8.72 53.9927 9.06133 53.3207 9.744C52.6594 10.4267 52.3287 11.312 52.3287 12.4C52.3287 13.4773 52.6594 14.3573 53.3207 15.04C53.9927 15.7227 54.8727 16.064 55.9607 16.064C56.6007 16.064 57.1767 15.9253 57.6887 15.648C58.2114 15.36 58.6061 14.9707 58.8728 14.48L60.7767 15.584C60.2968 16.3947 59.6301 17.04 58.7767 17.52C57.9234 17.9893 56.9847 18.224 55.9607 18.224ZM71.2051 18H68.6611L64.6611 12.752V18H62.4531V6.8H64.6611V11.744L68.5011 6.8H71.0451L66.9011 12.24L71.2051 18Z" fill="#606276"/>
</svg>
