<svg width="57" height="12" viewBox="0 0 57 12" fill="none" xmlns="http://www.w3.org/2000/svg">
<path d="M6.958 3.664C6.89267 3.59867 6.77133 3.51 6.594 3.398C6.426 3.286 6.216 3.17867 5.964 3.076C5.72133 2.964 5.45533 2.87067 5.166 2.796C4.87667 2.72133 4.58267 2.684 4.284 2.684C3.752 2.684 3.35533 2.782 3.094 2.978C2.83267 3.174 2.702 3.44933 2.702 3.804C2.702 4.00933 2.74867 4.182 2.842 4.322C2.94467 4.45267 3.08933 4.56933 3.276 4.672C3.46267 4.77467 3.696 4.868 3.976 4.952C4.26533 5.036 4.59667 5.12467 4.97 5.218C5.45533 5.34867 5.894 5.48867 6.286 5.638C6.68733 5.78733 7.02333 5.974 7.294 6.198C7.574 6.422 7.78867 6.69267 7.938 7.01C8.08733 7.318 8.162 7.70067 8.162 8.158C8.162 8.69 8.05933 9.14733 7.854 9.53C7.658 9.90333 7.38733 10.2067 7.042 10.44C6.706 10.6733 6.314 10.846 5.866 10.958C5.42733 11.0607 4.96533 11.112 4.48 11.112C3.73333 11.112 2.996 11 2.268 10.776C1.54 10.552 0.886667 10.2347 0.308 9.824L1.162 8.158C1.246 8.242 1.39533 8.354 1.61 8.494C1.834 8.62467 2.09533 8.76 2.394 8.9C2.69267 9.03067 3.024 9.14267 3.388 9.236C3.752 9.32933 4.12533 9.376 4.508 9.376C5.572 9.376 6.104 9.03533 6.104 8.354C6.104 8.13933 6.04333 7.95733 5.922 7.808C5.80067 7.65867 5.628 7.528 5.404 7.416C5.18 7.304 4.90933 7.20133 4.592 7.108C4.27467 7.01467 3.92 6.912 3.528 6.8C3.052 6.66933 2.63667 6.52933 2.282 6.38C1.93667 6.22133 1.64733 6.03933 1.414 5.834C1.18067 5.61933 1.00333 5.37667 0.882 5.106C0.77 4.826 0.714 4.49467 0.714 4.112C0.714 3.608 0.807333 3.16 0.994 2.768C1.18067 2.376 1.43733 2.04933 1.764 1.788C2.1 1.52667 2.48733 1.33067 2.926 1.2C3.36467 1.06 3.836 0.99 4.34 0.99C5.04 0.99 5.684 1.102 6.272 1.326C6.86 1.54067 7.37333 1.79733 7.812 2.096L6.958 3.664ZM16.2579 11H14.3819V6.884C14.3819 6.30533 14.2746 5.88067 14.0599 5.61C13.8453 5.33 13.5419 5.19 13.1499 5.19C12.9819 5.19 12.8046 5.22733 12.6179 5.302C12.4313 5.37667 12.2539 5.484 12.0859 5.624C11.9179 5.75467 11.7639 5.91333 11.6239 6.1C11.4839 6.28667 11.3813 6.492 11.3159 6.716V11H9.43994V0.78H11.3159V5.022C11.5866 4.546 11.9506 4.182 12.4079 3.93C12.8746 3.66867 13.3879 3.538 13.9479 3.538C14.4239 3.538 14.8113 3.622 15.1099 3.79C15.4086 3.94867 15.6419 4.16333 15.8099 4.434C15.9779 4.70467 16.0946 5.01267 16.1599 5.358C16.2253 5.70333 16.2579 6.058 16.2579 6.422V11ZM21.2772 11.14C20.6798 11.14 20.1432 11.0373 19.6672 10.832C19.1912 10.6267 18.7852 10.3513 18.4492 10.006C18.1225 9.65133 17.8705 9.24533 17.6932 8.788C17.5158 8.33067 17.4272 7.85 17.4272 7.346C17.4272 6.83267 17.5158 6.34733 17.6932 5.89C17.8705 5.43267 18.1225 5.03133 18.4492 4.686C18.7852 4.33133 19.1912 4.05133 19.6672 3.846C20.1432 3.64067 20.6798 3.538 21.2772 3.538C21.8745 3.538 22.4065 3.64067 22.8732 3.846C23.3492 4.05133 23.7505 4.33133 24.0772 4.686C24.4132 5.03133 24.6698 5.43267 24.8472 5.89C25.0245 6.34733 25.1132 6.83267 25.1132 7.346C25.1132 7.85 25.0245 8.33067 24.8472 8.788C24.6698 9.24533 24.4178 9.65133 24.0912 10.006C23.7645 10.3513 23.3632 10.6267 22.8872 10.832C22.4112 11.0373 21.8745 11.14 21.2772 11.14ZM19.3592 7.346C19.3592 7.67267 19.4058 7.97133 19.4992 8.242C19.6018 8.50333 19.7372 8.732 19.9052 8.928C20.0825 9.124 20.2878 9.278 20.5212 9.39C20.7545 9.49267 21.0065 9.544 21.2772 9.544C21.5478 9.544 21.7998 9.49267 22.0332 9.39C22.2665 9.278 22.4672 9.124 22.6352 8.928C22.8125 8.732 22.9478 8.49867 23.0412 8.228C23.1438 7.95733 23.1952 7.65867 23.1952 7.332C23.1952 7.01467 23.1438 6.72067 23.0412 6.45C22.9478 6.17933 22.8125 5.946 22.6352 5.75C22.4672 5.554 22.2665 5.40467 22.0332 5.302C21.7998 5.19 21.5478 5.134 21.2772 5.134C21.0065 5.134 20.7545 5.19 20.5212 5.302C20.2878 5.414 20.0825 5.568 19.9052 5.764C19.7372 5.96 19.6018 6.19333 19.4992 6.464C19.4058 6.73467 19.3592 7.02867 19.3592 7.346ZM35.2196 3.664H36.9976L33.9316 11H32.3916L31.1316 7.78L29.8856 11H28.3456L25.2936 3.664H27.0576L29.2416 9.236L30.1376 6.856L28.8496 3.678H30.3616L31.1316 5.932L31.9156 3.678H33.4276L32.1536 6.856L33.0356 9.236L35.2196 3.664ZM42.8462 11.14C42.4916 11.14 42.1602 11.084 41.8522 10.972C41.5442 10.8507 41.2782 10.6873 41.0542 10.482C40.8302 10.2673 40.6529 10.02 40.5222 9.74C40.4009 9.46 40.3402 9.152 40.3402 8.816C40.3402 8.47067 40.4149 8.15333 40.5642 7.864C40.7229 7.56533 40.9376 7.31333 41.2082 7.108C41.4882 6.90267 41.8196 6.744 42.2022 6.632C42.5849 6.51067 43.0049 6.45 43.4622 6.45C43.7889 6.45 44.1062 6.478 44.4142 6.534C44.7316 6.59 45.0116 6.66933 45.2542 6.772V6.352C45.2542 5.86667 45.1142 5.49333 44.8342 5.232C44.5636 4.97067 44.1576 4.84 43.6162 4.84C43.2242 4.84 42.8416 4.91 42.4682 5.05C42.0949 5.19 41.7122 5.39533 41.3202 5.666L40.7462 4.476C41.6889 3.85067 42.7062 3.538 43.7982 3.538C44.8529 3.538 45.6696 3.79933 46.2482 4.322C46.8362 4.83533 47.1302 5.582 47.1302 6.562V8.844C47.1302 9.04 47.1629 9.18 47.2282 9.264C47.3029 9.348 47.4196 9.39467 47.5782 9.404V11C47.2609 11.0653 46.9856 11.098 46.7522 11.098C46.3976 11.098 46.1222 11.0187 45.9262 10.86C45.7396 10.7013 45.6229 10.4913 45.5762 10.23L45.5342 9.824C45.2076 10.2533 44.8109 10.58 44.3442 10.804C43.8776 11.028 43.3782 11.14 42.8462 11.14ZM43.3782 9.768C43.6956 9.768 43.9942 9.712 44.2742 9.6C44.5636 9.488 44.7876 9.33867 44.9462 9.152C45.1516 8.99333 45.2542 8.816 45.2542 8.62V7.78C45.0302 7.696 44.7876 7.63067 44.5262 7.584C44.2649 7.528 44.0129 7.5 43.7702 7.5C43.2849 7.5 42.8882 7.612 42.5802 7.836C42.2722 8.05067 42.1182 8.326 42.1182 8.662C42.1182 8.97933 42.2396 9.24533 42.4822 9.46C42.7249 9.66533 43.0236 9.768 43.3782 9.768ZM48.8693 0.78H50.7453V8.648C50.7453 8.91867 50.8106 9.12867 50.9413 9.278C51.072 9.42733 51.2586 9.502 51.5013 9.502C51.6133 9.502 51.7346 9.48333 51.8653 9.446C52.0053 9.40867 52.136 9.362 52.2573 9.306L52.5093 10.734C52.2573 10.8553 51.9633 10.9487 51.6273 11.014C51.2913 11.0793 50.988 11.112 50.7173 11.112C50.1293 11.112 49.672 10.958 49.3453 10.65C49.028 10.3327 48.8693 9.88467 48.8693 9.306V0.78ZM53.3127 0.78H55.1887V8.648C55.1887 8.91867 55.254 9.12867 55.3847 9.278C55.5153 9.42733 55.702 9.502 55.9447 9.502C56.0567 9.502 56.178 9.48333 56.3087 9.446C56.4487 9.40867 56.5793 9.362 56.7007 9.306L56.9527 10.734C56.7007 10.8553 56.4067 10.9487 56.0707 11.014C55.7347 11.0793 55.4313 11.112 55.1607 11.112C54.5727 11.112 54.1153 10.958 53.7887 10.65C53.4713 10.3327 53.3127 9.88467 53.3127 9.306V0.78Z" fill="url(#paint0_linear_102_591)"/>
<defs>
<linearGradient id="paint0_linear_102_591" x1="57" y1="-2" x2="0" y2="-2" gradientUnits="userSpaceOnUse">
<stop stop-color="#8743FF"/>
<stop offset="1" stop-color="#D8C2FF"/>
</linearGradient>
</defs>
</svg>
